<?xml version="1.0" standalone="no"?>
<!DOCTYPE svg PUBLIC "-//W3C//DTD SVG 20010904//EN"
 "http://www.w3.org/TR/2001/REC-SVG-20010904/DTD/svg10.dtd">
<svg version="1.0" xmlns="http://www.w3.org/2000/svg"
 width="792.000000pt" height="792.000000pt" viewBox="0 0 792.000000 792.000000"
 preserveAspectRatio="xMidYMid meet">
<metadata>
Created by potrace 1.14, written by Peter Selinger 2001-2017
</metadata>
<g transform="translate(0.000000,792.000000) scale(0.100000,-0.100000)"
fill="#000000" stroke="none">
<path d="M2278 7750 c-78 -23 -157 -99 -179 -172 -25 -83 -3 -191 51 -251 27
-32 96 -75 129 -82 12 -3 31 -7 42 -10 12 -2 23 -6 24 -7 1 -2 39 -97 84 -213
45 -115 86 -219 91 -230 4 -11 24 -60 43 -110 20 -49 41 -103 48 -120 7 -16
13 -32 13 -35 1 -3 38 -97 83 -210 89 -224 260 -657 344 -870 29 -74 94 -238
144 -365 51 -126 90 -232 89 -234 -3 -3 -180 176 -424 429 -45 47 -189 195
-320 330 -131 135 -280 288 -330 340 -50 52 -203 210 -340 350 -136 140 -283
292 -327 336 -389 404 -507 523 -529 534 -21 12 -24 19 -18 43 19 87 8 145
-40 217 -35 53 -46 62 -106 91 -32 16 -63 22 -106 22 -107 -1 -194 -56 -238
-152 -59 -129 -5 -279 124 -346 42 -22 126 -30 173 -17 34 9 39 9 45 -8 4 -11
108 -124 232 -251 343 -353 378 -389 630 -649 334 -345 375 -387 660 -680 140
-144 288 -297 329 -339 40 -42 117 -120 170 -175 53 -54 92 -97 86 -94 -234
113 -355 168 -365 168 -5 0 -10 5 -10 10 0 6 -4 10 -10 10 -11 0 -205 93 -790
377 -107 52 -216 104 -242 115 -42 18 -49 26 -59 62 -17 67 -36 101 -79 139
-55 50 -104 69 -176 69 -99 0 -173 -42 -229 -132 -58 -92 -34 -248 50 -322 11
-9 41 -28 66 -41 38 -20 58 -24 123 -23 55 2 80 6 87 17 5 8 9 11 9 7 0 -4 14
1 31 11 l32 19 52 -28 c29 -16 55 -27 58 -24 2 2 10 -2 17 -11 7 -8 17 -15 22
-15 5 0 67 -28 136 -61 164 -80 411 -198 437 -210 11 -5 27 -13 35 -18 8 -6
44 -23 80 -39 36 -17 148 -70 250 -120 213 -103 433 -209 573 -276 53 -26 97
-48 97 -49 0 -2 -1100 0 -1112 2 -3 0 -9 14 -13 30 -9 43 -77 115 -132 141
-153 73 -341 -27 -369 -196 -4 -22 -6 -43 -6 -49 2 -19 14 -70 19 -85 4 -8 7
-18 7 -21 3 -21 73 -92 114 -116 41 -24 57 -28 127 -28 77 0 83 2 140 40 l60
40 810 0 c446 -1 824 3 841 7 36 9 72 45 80 79 7 33 5 166 -10 479 -4 69 -9
188 -12 265 -2 77 -7 190 -9 250 -2 61 -7 173 -10 250 -3 77 -7 190 -10 250
-2 61 -7 180 -10 265 -3 85 -8 189 -10 230 -3 74 -3 76 26 99 50 40 83 107 85
172 3 70 -12 116 -53 167 -87 107 -251 114 -350 15 -24 -23 -43 -49 -43 -57 0
-8 -5 -16 -11 -18 -5 -2 -12 -32 -14 -66 -6 -86 16 -146 73 -200 l45 -43 3
-92 c2 -51 6 -150 9 -222 3 -71 8 -195 10 -275 3 -80 7 -188 10 -240 2 -52 7
-174 10 -270 l6 -175 -54 135 c-30 74 -57 144 -62 155 -5 11 -9 22 -10 25 -1
3 -5 14 -10 25 -37 93 -80 203 -185 470 -67 171 -126 319 -130 330 -24 55
-110 273 -110 279 0 3 -9 25 -19 49 -17 37 -121 300 -265 668 l-45 115 25 53
c16 33 25 69 25 99 -1 42 -6 82 -11 90 -2 1 -3 5 -4 10 -10 46 -72 115 -130
144 -43 22 -143 31 -188 18z"/>
<path d="M6702 7558 c-34 -6 -57 -20 -103 -65 -33 -32 -107 -103 -164 -158
-110 -106 -446 -429 -550 -530 -95 -91 -482 -464 -535 -515 -26 -25 -145 -139
-265 -255 -120 -115 -272 -263 -339 -327 l-121 -117 -50 4 c-27 2 -54 4 -60 6
-41 11 -151 -45 -194 -99 -131 -167 -15 -422 194 -425 158 -2 273 114 270 271
l-1 62 215 208 c118 114 247 239 287 277 40 39 150 144 244 235 95 91 209 201
255 245 83 80 413 399 556 537 42 40 169 162 283 272 113 109 203 202 200 207
-3 5 0 9 5 9 14 0 14 51 0 87 -21 55 -68 82 -127 71z"/>
<path d="M7467 6943 c-11 -2 -27 -12 -36 -21 -84 -80 -441 -424 -506 -487 -45
-44 -165 -159 -265 -255 -237 -228 -304 -293 -550 -530 -113 -109 -234 -226
-270 -260 -36 -34 -150 -145 -255 -246 -104 -101 -227 -218 -272 -261 l-83
-79 -63 4 c-80 5 -133 -9 -190 -53 -103 -79 -130 -233 -61 -344 33 -53 105
-105 164 -118 63 -14 151 3 205 40 78 54 109 115 111 220 l2 78 80 77 c169
162 459 441 551 530 53 52 168 163 256 247 88 84 199 191 246 237 47 46 175
169 284 273 108 105 241 232 294 283 53 51 177 171 275 265 249 239 245 234
241 292 -4 46 -14 68 -41 89 -26 19 -85 29 -117 19z"/>
<path d="M6399 6582 c-15 -9 -121 -108 -235 -219 -115 -110 -241 -232 -280
-270 -40 -37 -156 -149 -259 -248 -103 -99 -219 -211 -258 -249 -40 -38 -166
-159 -281 -270 -114 -110 -247 -238 -294 -283 -316 -305 -436 -418 -442 -416
-34 10 -123 10 -155 1 -81 -24 -153 -89 -178 -162 -60 -175 73 -359 253 -351
148 6 253 117 253 268 l0 67 176 169 c97 93 217 209 267 258 161 155 456 439
541 520 44 43 165 159 268 258 103 99 220 212 260 250 113 109 476 458 492
474 53 51 64 112 31 161 -40 59 -107 77 -159 42z"/>
<path d="M3487 3876 c-63 -23 -110 -65 -144 -131 -21 -40 -27 -64 -27 -120 l0
-70 -55 -54 c-31 -29 -157 -151 -280 -270 -124 -119 -279 -268 -345 -333 -260
-250 -306 -295 -459 -441 -88 -84 -198 -190 -246 -237 -49 -47 -177 -170 -286
-275 -374 -360 -373 -358 -381 -399 -13 -70 32 -128 105 -140 47 -7 72 8 178
111 154 149 454 437 528 508 39 37 131 126 206 199 119 114 427 411 598 576
54 51 442 426 553 533 40 39 54 46 76 42 181 -37 336 90 327 267 -4 65 -39
145 -82 183 -64 57 -185 80 -266 51z"/>
<path d="M6020 3869 c-60 -9 -90 -22 -128 -54 l-32 -27 -825 0 c-718 0 -830
-2 -856 -15 -17 -8 -33 -23 -37 -32 -3 -9 -10 -19 -15 -22 -10 -7 -11 -104 -3
-294 3 -77 8 -194 11 -260 2 -66 7 -178 10 -250 3 -71 8 -184 10 -250 2 -66 7
-178 10 -250 3 -71 7 -186 10 -255 2 -69 7 -186 11 -260 12 -282 15 -255 -29
-298 -51 -49 -73 -96 -76 -164 -6 -139 107 -253 246 -247 134 5 227 103 227
239 0 77 -24 130 -80 180 -35 30 -38 37 -40 94 -1 33 -5 124 -8 201 -12 275
-17 415 -21 527 -2 62 -7 185 -10 273 -3 88 -8 170 -10 183 -7 41 11 14 40
-60 16 -40 30 -75 31 -78 0 -3 5 -16 11 -30 6 -14 36 -90 67 -170 31 -80 60
-154 65 -165 8 -18 45 -114 67 -170 4 -11 6 -23 6 -27 -1 -5 2 -8 8 -8 5 0 10
-6 10 -12 0 -12 123 -331 156 -405 8 -17 14 -33 14 -36 0 -2 7 -21 15 -41 8
-20 15 -37 14 -38 -1 -2 8 -22 20 -45 12 -24 19 -43 16 -43 -3 0 0 -10 7 -22
7 -13 12 -25 13 -28 0 -3 8 -24 17 -45 38 -90 101 -251 102 -262 1 -7 8 -19
14 -25 7 -7 12 -17 12 -24 0 -11 87 -240 110 -289 5 -11 25 -60 44 -110 30
-77 33 -93 22 -110 -31 -48 -46 -141 -32 -201 9 -42 45 -101 81 -132 88 -78
218 -89 310 -28 84 55 117 113 121 213 3 83 -21 146 -78 200 -26 25 -110 71
-133 73 -3 0 -14 0 -24 0 -12 0 -23 9 -27 23 -8 25 -131 342 -145 372 -5 11
-38 94 -73 185 -86 221 -314 800 -325 825 -13 28 -152 378 -155 390 -4 14 -16
46 -26 70 -5 11 -48 119 -95 240 -47 121 -93 235 -101 253 -8 18 -14 36 -14
40 0 4 64 -59 143 -140 280 -290 613 -633 687 -709 41 -42 185 -190 320 -329
135 -139 283 -292 330 -340 47 -48 189 -194 315 -325 345 -356 458 -470 482
-486 19 -13 21 -20 14 -46 -9 -30 -7 -97 3 -140 7 -33 62 -108 94 -132 57 -40
109 -54 182 -48 110 9 192 75 224 180 31 103 4 200 -76 272 -68 61 -136 79
-235 61 -35 -6 -42 -5 -47 11 -3 10 -65 79 -137 153 -72 74 -226 233 -342 353
-117 121 -255 263 -307 317 -52 53 -196 202 -320 330 -124 128 -279 287 -345
355 -66 68 -217 223 -335 345 -118 123 -237 244 -264 271 -28 27 -48 50 -45
53 2 2 56 -20 119 -51 63 -30 178 -86 255 -123 77 -37 208 -100 290 -140 83
-40 220 -106 305 -147 488 -234 490 -235 496 -262 20 -91 72 -159 151 -196 47
-23 66 -26 117 -23 78 6 83 8 134 41 58 38 99 97 112 161 10 51 6 116 -11 147
-4 9 -5 19 -2 23 3 3 1 6 -5 6 -7 0 -12 6 -12 13 -1 18 -30 49 -78 84 -78 57
-179 61 -278 12 l-40 -21 -165 80 c-90 44 -218 105 -284 137 -66 32 -187 90
-270 130 -82 40 -202 97 -265 128 -442 211 -760 367 -760 371 0 2 247 4 548 4
l548 1 23 -50 c14 -29 44 -66 73 -90 26 -23 48 -38 48 -35 0 4 14 -1 32 -10
48 -25 153 -15 212 20 179 105 174 365 -9 459 -52 26 -99 34 -155 26z"/>
<path d="M2640 3710 c-74 -20 -140 -73 -175 -139 -19 -38 -32 -121 -24 -158 7
-35 5 -37 -479 -502 -79 -75 -403 -387 -542 -521 -43 -41 -169 -163 -280 -270
-112 -107 -231 -222 -265 -255 -34 -33 -146 -141 -249 -240 -358 -343 -405
-391 -411 -418 -25 -96 71 -181 160 -142 17 7 73 54 125 105 108 104 256 247
550 530 112 107 236 227 275 265 85 82 456 439 525 505 56 53 411 396 618 597
115 111 150 139 163 132 28 -14 142 -3 185 19 237 122 165 481 -101 496 -27 1
-61 0 -75 -4z"/>
<path d="M3225 2912 c-22 -9 -41 -19 -43 -24 -2 -4 -10 -8 -18 -8 -8 0 -14 -4
-14 -10 0 -5 -6 -10 -13 -10 -7 0 -18 -10 -26 -21 -49 -80 -54 -95 -55 -169
l-1 -75 -82 -81 c-45 -44 -171 -165 -279 -270 -109 -104 -228 -218 -264 -254
-37 -36 -156 -150 -265 -255 -211 -203 -230 -221 -550 -530 -114 -110 -235
-226 -269 -259 -238 -228 -323 -312 -333 -330 -28 -47 2 -156 42 -156 8 0 15
-4 15 -9 0 -5 22 -8 49 -7 53 2 54 2 151 96 31 30 116 111 187 180 116 111
439 423 623 600 37 36 161 155 276 265 114 110 236 227 270 260 34 33 151 146
260 251 368 354 332 323 364 314 43 -12 123 -4 172 18 66 29 133 108 142 166
1 8 5 18 8 21 11 11 -2 113 -20 155 -52 122 -208 189 -327 142z"/>
</g>
</svg>
